<?xml version='1.0' encoding='utf-8'?>
<svg xmlns="http://www.w3.org/2000/svg" id="Capa_1" data-name="Capa 1" viewBox="0 0 100 100"><defs><style>.cls-1{fill:#1a1a1a;}.cls-2{fill:#e8cf16;}</style></defs><rect class="cls-1" x="-0.23" y="0.48" width="100.23" height="100.22"/><path class="cls-2" d="M52.15,78A3.21,3.21,0,0,1,49,75.39l-7.39-36.1L37.87,51.42a3.21,3.21,0,0,1-3.08,2.23H16.91a3.2,3.2,0,1,1,0-6.4H32.44l6.78-21.77a3.21,3.21,0,0,1,6.2.31l6.64,32.53,3.09-15.93a3.19,3.19,0,0,1,3.15-2.6H82.86a3.2,3.2,0,0,1,0,6.39H60.94L55.3,75.35A3.21,3.21,0,0,1,52.17,78Z"/></svg>