<?xml version='1.0' encoding='utf-8'?>
<svg xmlns:xlink="http://www.w3.org/1999/xlink" xmlns="http://www.w3.org/2000/svg" version="1.0" width="4200.000000pt" height="2800.000000pt" viewBox="0 0 4200.000000 2800.000000" preserveAspectRatio="xMidYMid meet" id="svg144"> <metadata id="metadata150"> </metadata> <defs id="defs148"> <pattern xlink:href="#Strips1_1" id="pattern8802" patternTransform="matrix(10,0,0,10,470.21356,427.46688)"/> <linearGradient id="linearGradient7706"> <stop style="stop-color:#000000;stop-opacity:1;" offset="0" id="stop7704"/> </linearGradient> <linearGradient id="linearGradient7700"> <stop style="stop-color:#000000;stop-opacity:1;" offset="0" id="stop7698"/> </linearGradient> <pattern id="Strips1_1" patternTransform="translate(0,0) scale(10,10)" height="1" width="2" patternUnits="userSpaceOnUse"> <rect id="rect6550" height="2" width="1" y="-0.5" x="0" style="fill:black;stroke:none"/> </pattern> <linearGradient id="linearGradient7692"> <stop style="stop-color:#000000;stop-opacity:1;" offset="0" id="stop7690"/> </linearGradient> <filter style="color-interpolation-filters:sRGB;" id="filter7660"> <feColorMatrix values="0 0 0 0 0 0 0 0 0 0 0 0 0 0 0 0.21 0.72 0.07 0 0 " result="result1" id="feColorMatrix7632"/> <feColorMatrix values="1 0 0 0 0 0 1 0 0 0 0 0 1 0 0 0 0 0 2 0 " result="result9" id="feColorMatrix7634"/> <feComposite in2="result9" in="SourceGraphic" operator="in" result="result4" id="feComposite7636"/> <feFlood result="result2" flood-color="rgb(0,0,0)" id="feFlood7638"/> <feComposite in2="result9" operator="in" result="result10" id="feComposite7640"/> <feComposite in2="result4" operator="atop" id="feComposite7642"/> <feGaussianBlur stdDeviation="3" result="result8" id="feGaussianBlur7644"/> <feOffset dx="3" dy="3" result="result3" in="result8" id="feOffset7646"/> <feFlood flood-opacity="1" flood-color="rgb(219,173,62)" result="result5" id="feFlood7648"/> <feMerge result="result6" id="feMerge7656"> <feMergeNode in="result5" id="feMergeNode7650"/> <feMergeNode in="result3" id="feMergeNode7652"/> <feMergeNode in="result4" id="feMergeNode7654"/> </feMerge> <feComposite in2="SourceGraphic" operator="in" result="fbSourceGraphic" id="feComposite7658"/> <feColorMatrix result="fbSourceGraphicAlpha" in="fbSourceGraphic" values="0 0 0 -1 0 0 0 0 -1 0 0 0 0 -1 0 0 0 0 1 0" id="feColorMatrix7662"/> <feOffset id="feOffset7664" dy="3" dx="3" in="fbSourceGraphic"/> <feGaussianBlur id="feGaussianBlur7666" stdDeviation="3" result="blur"/> <feFlood id="feFlood7668" flood-color="rgb(0,0,0)" flood-opacity="1" result="flood"/> <feComposite in2="fbSourceGraphic" id="feComposite7670" in="flood" operator="in" result="composite"/> <feBlend in2="composite" id="feBlend7672" in="blur" mode="normal"/> </filter> <filter y="-0.25" height="1.5" style="color-interpolation-filters:sRGB;" id="filter7720"> <feGaussianBlur stdDeviation="5" result="result6" id="feGaussianBlur7710"/> <feComposite result="result8" in="SourceGraphic" operator="atop" in2="result6" id="feComposite7712"/> <feComposite result="result9" operator="over" in2="SourceAlpha" in="result8" id="feComposite7714"/> <feColorMatrix values="1 0 0 0 0 0 1 0 0 0 0 0 1 0 0 0 0 0 1 0 " result="result10" id="feColorMatrix7716"/> <feBlend in="result10" mode="normal" in2="result6" id="feBlend7718"/> </filter> <filter style="color-interpolation-filters:sRGB;" id="filter8230"> <feColorMatrix values="0 0 0 0 0 0 0 0 0 0 0 0 0 0 0 0.21 0.72 0.07 0 0 " result="result1" id="feColorMatrix8202"/> <feColorMatrix values="1 0 0 0 0 0 1 0 0 0 0 0 1 0 0 0 0 0 2 0 " result="result9" id="feColorMatrix8204"/> <feComposite in2="result9" in="SourceGraphic" operator="in" result="result4" id="feComposite8206"/> <feFlood result="result2" flood-color="rgb(0,0,0)" id="feFlood8208"/> <feComposite in2="result9" operator="in" result="result10" id="feComposite8210"/> <feComposite in2="result4" operator="atop" id="feComposite8212"/> <feGaussianBlur stdDeviation="3" result="result8" id="feGaussianBlur8214"/> <feOffset dx="3" dy="3" result="result3" in="result8" id="feOffset8216"/> <feFlood flood-opacity="1" flood-color="rgb(219,173,62)" result="result5" id="feFlood8218"/> <feMerge result="result6" id="feMerge8226"> <feMergeNode in="result5" id="feMergeNode8220"/> <feMergeNode in="result3" id="feMergeNode8222"/> <feMergeNode in="result4" id="feMergeNode8224"/> </feMerge> <feComposite in2="SourceGraphic" operator="in" result="result7" id="feComposite8228"/> </filter> <filter style="color-interpolation-filters:sRGB;" id="filter8260"> <feColorMatrix values="0 0 0 0 0 0 0 0 0 0 0 0 0 0 0 0.21 0.72 0.07 0 0 " result="result1" id="feColorMatrix8232"/> <feColorMatrix values="1 0 0 0 0 0 1 0 0 0 0 0 1 0 0 0 0 0 2 0 " result="result9" id="feColorMatrix8234"/> <feComposite in2="result9" in="SourceGraphic" operator="in" result="result4" id="feComposite8236"/> <feFlood result="result2" flood-color="rgb(0,0,0)" id="feFlood8238"/> <feComposite in2="result9" operator="in" result="result10" id="feComposite8240"/> <feComposite in2="result4" operator="atop" id="feComposite8242"/> <feGaussianBlur stdDeviation="3" result="result8" id="feGaussianBlur8244"/> <feOffset dx="3" dy="3" result="result3" in="result8" id="feOffset8246"/> <feFlood flood-opacity="1" flood-color="rgb(219,173,62)" result="result5" id="feFlood8248"/> <feMerge result="result6" id="feMerge8256"> <feMergeNode in="result5" id="feMergeNode8250"/> <feMergeNode in="result3" id="feMergeNode8252"/> <feMergeNode in="result4" id="feMergeNode8254"/> </feMerge> <feComposite in2="SourceGraphic" operator="in" result="result7" id="feComposite8258"/> </filter> <filter style="color-interpolation-filters:sRGB;" id="filter8290"> <feColorMatrix values="0 0 0 0 0 0 0 0 0 0 0 0 0 0 0 0.21 0.72 0.07 0 0 " result="result1" id="feColorMatrix8262"/> <feColorMatrix values="1 0 0 0 0 0 1 0 0 0 0 0 1 0 0 0 0 0 2 0 " result="result9" id="feColorMatrix8264"/> <feComposite in2="result9" in="SourceGraphic" operator="in" result="result4" id="feComposite8266"/> <feFlood result="result2" flood-color="rgb(0,0,0)" id="feFlood8268"/> <feComposite in2="result9" operator="in" result="result10" id="feComposite8270"/> <feComposite in2="result4" operator="atop" id="feComposite8272"/> <feGaussianBlur stdDeviation="3" result="result8" id="feGaussianBlur8274"/> <feOffset dx="3" dy="3" result="result3" in="result8" id="feOffset8276"/> <feFlood flood-opacity="1" flood-color="rgb(219,173,62)" result="result5" id="feFlood8278"/> <feMerge result="result6" id="feMerge8286"> <feMergeNode in="result5" id="feMergeNode8280"/> <feMergeNode in="result3" id="feMergeNode8282"/> <feMergeNode in="result4" id="feMergeNode8284"/> </feMerge> <feComposite in2="SourceGraphic" operator="in" result="result7" id="feComposite8288"/> </filter> <filter style="color-interpolation-filters:sRGB;" id="filter8320"> <feColorMatrix values="0 0 0 0 0 0 0 0 0 0 0 0 0 0 0 0.21 0.72 0.07 0 0 " result="result1" id="feColorMatrix8292"/> <feColorMatrix values="1 0 0 0 0 0 1 0 0 0 0 0 1 0 0 0 0 0 2 0 " result="result9" id="feColorMatrix8294"/> <feComposite in2="result9" in="SourceGraphic" operator="in" result="result4" id="feComposite8296"/> <feFlood result="result2" flood-color="rgb(0,0,0)" id="feFlood8298"/> <feComposite in2="result9" operator="in" result="result10" id="feComposite8300"/> <feComposite in2="result4" operator="atop" id="feComposite8302"/> <feGaussianBlur stdDeviation="3" result="result8" id="feGaussianBlur8304"/> <feOffset dx="3" dy="3" result="result3" in="result8" id="feOffset8306"/> <feFlood flood-opacity="1" flood-color="rgb(219,173,62)" result="result5" id="feFlood8308"/> <feMerge result="result6" id="feMerge8316"> <feMergeNode in="result5" id="feMergeNode8310"/> <feMergeNode in="result3" id="feMergeNode8312"/> <feMergeNode in="result4" id="feMergeNode8314"/> </feMerge> <feComposite in2="SourceGraphic" operator="in" result="result7" id="feComposite8318"/> </filter> <filter style="color-interpolation-filters:sRGB;" id="filter8350"> <feColorMatrix values="0 0 0 0 0 0 0 0 0 0 0 0 0 0 0 0.21 0.72 0.07 0 0 " result="result1" id="feColorMatrix8322"/> <feColorMatrix values="1 0 0 0 0 0 1 0 0 0 0 0 1 0 0 0 0 0 2 0 " result="result9" id="feColorMatrix8324"/> <feComposite in2="result9" in="SourceGraphic" operator="in" result="result4" id="feComposite8326"/> <feFlood result="result2" flood-color="rgb(0,0,0)" id="feFlood8328"/> <feComposite in2="result9" operator="in" result="result10" id="feComposite8330"/> <feComposite in2="result4" operator="atop" id="feComposite8332"/> <feGaussianBlur stdDeviation="3" result="result8" id="feGaussianBlur8334"/> <feOffset dx="3" dy="3" result="result3" in="result8" id="feOffset8336"/> <feFlood flood-opacity="1" flood-color="rgb(219,173,62)" result="result5" id="feFlood8338"/> <feMerge result="result6" id="feMerge8346"> <feMergeNode in="result5" id="feMergeNode8340"/> <feMergeNode in="result3" id="feMergeNode8342"/> <feMergeNode in="result4" id="feMergeNode8344"/> </feMerge> <feComposite in2="SourceGraphic" operator="in" result="result7" id="feComposite8348"/> </filter> <filter style="color-interpolation-filters:sRGB;" id="filter8380"> <feColorMatrix values="0 0 0 0 0 0 0 0 0 0 0 0 0 0 0 0.21 0.72 0.07 0 0 " result="result1" id="feColorMatrix8352"/> <feColorMatrix values="1 0 0 0 0 0 1 0 0 0 0 0 1 0 0 0 0 0 2 0 " result="result9" id="feColorMatrix8354"/> <feComposite in2="result9" in="SourceGraphic" operator="in" result="result4" id="feComposite8356"/> <feFlood result="result2" flood-color="rgb(0,0,0)" id="feFlood8358"/> <feComposite in2="result9" operator="in" result="result10" id="feComposite8360"/> <feComposite in2="result4" operator="atop" id="feComposite8362"/> <feGaussianBlur stdDeviation="3" result="result8" id="feGaussianBlur8364"/> <feOffset dx="3" dy="3" result="result3" in="result8" id="feOffset8366"/> <feFlood flood-opacity="1" flood-color="rgb(219,173,62)" result="result5" id="feFlood8368"/> <feMerge result="result6" id="feMerge8376"> <feMergeNode in="result5" id="feMergeNode8370"/> <feMergeNode in="result3" id="feMergeNode8372"/> <feMergeNode in="result4" id="feMergeNode8374"/> </feMerge> <feComposite in2="SourceGraphic" operator="in" result="result7" id="feComposite8378"/> </filter> <filter style="color-interpolation-filters:sRGB;" id="filter8410"> <feColorMatrix values="0 0 0 0 0 0 0 0 0 0 0 0 0 0 0 0.21 0.72 0.07 0 0 " result="result1" id="feColorMatrix8382"/> <feColorMatrix values="1 0 0 0 0 0 1 0 0 0 0 0 1 0 0 0 0 0 2 0 " result="result9" id="feColorMatrix8384"/> <feComposite in2="result9" in="SourceGraphic" operator="in" result="result4" id="feComposite8386"/> <feFlood result="result2" flood-color="rgb(0,0,0)" id="feFlood8388"/> <feComposite in2="result9" operator="in" result="result10" id="feComposite8390"/> <feComposite in2="result4" operator="atop" id="feComposite8392"/> <feGaussianBlur stdDeviation="3" result="result8" id="feGaussianBlur8394"/> <feOffset dx="3" dy="3" result="result3" in="result8" id="feOffset8396"/> <feFlood flood-opacity="1" flood-color="rgb(219,173,62)" result="result5" id="feFlood8398"/> <feMerge result="result6" id="feMerge8406"> <feMergeNode in="result5" id="feMergeNode8400"/> <feMergeNode in="result3" id="feMergeNode8402"/> <feMergeNode in="result4" id="feMergeNode8404"/> </feMerge> <feComposite in2="SourceGraphic" operator="in" result="result7" id="feComposite8408"/> </filter> <filter style="color-interpolation-filters:sRGB;" id="filter8440"> <feColorMatrix values="0 0 0 0 0 0 0 0 0 0 0 0 0 0 0 0.21 0.72 0.07 0 0 " result="result1" id="feColorMatrix8412"/> <feColorMatrix values="1 0 0 0 0 0 1 0 0 0 0 0 1 0 0 0 0 0 2 0 " result="result9" id="feColorMatrix8414"/> <feComposite in2="result9" in="SourceGraphic" operator="in" result="result4" id="feComposite8416"/> <feFlood result="result2" flood-color="rgb(0,0,0)" id="feFlood8418"/> <feComposite in2="result9" operator="in" result="result10" id="feComposite8420"/> <feComposite in2="result4" operator="atop" id="feComposite8422"/> <feGaussianBlur stdDeviation="3" result="result8" id="feGaussianBlur8424"/> <feOffset dx="3" dy="3" result="result3" in="result8" id="feOffset8426"/> <feFlood flood-opacity="1" flood-color="rgb(219,173,62)" result="result5" id="feFlood8428"/> <feMerge result="result6" id="feMerge8436"> <feMergeNode in="result5" id="feMergeNode8430"/> <feMergeNode in="result3" id="feMergeNode8432"/> <feMergeNode in="result4" id="feMergeNode8434"/> </feMerge> <feComposite in2="SourceGraphic" operator="in" result="result7" id="feComposite8438"/> </filter> <filter style="color-interpolation-filters:sRGB;" id="filter8470"> <feColorMatrix values="0 0 0 0 0 0 0 0 0 0 0 0 0 0 0 0.21 0.72 0.07 0 0 " result="result1" id="feColorMatrix8442"/> <feColorMatrix values="1 0 0 0 0 0 1 0 0 0 0 0 1 0 0 0 0 0 2 0 " result="result9" id="feColorMatrix8444"/> <feComposite in2="result9" in="SourceGraphic" operator="in" result="result4" id="feComposite8446"/> <feFlood result="result2" flood-color="rgb(0,0,0)" id="feFlood8448"/> <feComposite in2="result9" operator="in" result="result10" id="feComposite8450"/> <feComposite in2="result4" operator="atop" id="feComposite8452"/> <feGaussianBlur stdDeviation="3" result="result8" id="feGaussianBlur8454"/> <feOffset dx="3" dy="3" result="result3" in="result8" id="feOffset8456"/> <feFlood flood-opacity="1" flood-color="rgb(219,173,62)" result="result5" id="feFlood8458"/> <feMerge result="result6" id="feMerge8466"> <feMergeNode in="result5" id="feMergeNode8460"/> <feMergeNode in="result3" id="feMergeNode8462"/> <feMergeNode in="result4" id="feMergeNode8464"/> </feMerge> <feComposite in2="SourceGraphic" operator="in" result="result7" id="feComposite8468"/> </filter> <filter style="color-interpolation-filters:sRGB;" id="filter8500"> <feColorMatrix values="0 0 0 0 0 0 0 0 0 0 0 0 0 0 0 0.21 0.72 0.07 0 0 " result="result1" id="feColorMatrix8472"/> <feColorMatrix values="1 0 0 0 0 0 1 0 0 0 0 0 1 0 0 0 0 0 2 0 " result="result9" id="feColorMatrix8474"/> <feComposite in2="result9" in="SourceGraphic" operator="in" result="result4" id="feComposite8476"/> <feFlood result="result2" flood-color="rgb(0,0,0)" id="feFlood8478"/> <feComposite in2="result9" operator="in" result="result10" id="feComposite8480"/> <feComposite in2="result4" operator="atop" id="feComposite8482"/> <feGaussianBlur stdDeviation="3" result="result8" id="feGaussianBlur8484"/> <feOffset dx="3" dy="3" result="result3" in="result8" id="feOffset8486"/> <feFlood flood-opacity="1" flood-color="rgb(219,173,62)" result="result5" id="feFlood8488"/> <feMerge result="result6" id="feMerge8496"> <feMergeNode in="result5" id="feMergeNode8490"/> <feMergeNode in="result3" id="feMergeNode8492"/> <feMergeNode in="result4" id="feMergeNode8494"/> </feMerge> <feComposite in2="SourceGraphic" operator="in" result="result7" id="feComposite8498"/> </filter> <filter style="color-interpolation-filters:sRGB;" id="filter8530"> <feColorMatrix values="0 0 0 0 0 0 0 0 0 0 0 0 0 0 0 0.21 0.72 0.07 0 0 " result="result1" id="feColorMatrix8502"/> <feColorMatrix values="1 0 0 0 0 0 1 0 0 0 0 0 1 0 0 0 0 0 2 0 " result="result9" id="feColorMatrix8504"/> <feComposite in2="result9" in="SourceGraphic" operator="in" result="result4" id="feComposite8506"/> <feFlood result="result2" flood-color="rgb(0,0,0)" id="feFlood8508"/> <feComposite in2="result9" operator="in" result="result10" id="feComposite8510"/> <feComposite in2="result4" operator="atop" id="feComposite8512"/> <feGaussianBlur stdDeviation="3" result="result8" id="feGaussianBlur8514"/> <feOffset dx="3" dy="3" result="result3" in="result8" id="feOffset8516"/> <feFlood flood-opacity="1" flood-color="rgb(219,173,62)" result="result5" id="feFlood8518"/> <feMerge result="result6" id="feMerge8526"> <feMergeNode in="result5" id="feMergeNode8520"/> <feMergeNode in="result3" id="feMergeNode8522"/> <feMergeNode in="result4" id="feMergeNode8524"/> </feMerge> <feComposite in2="SourceGraphic" operator="in" result="result7" id="feComposite8528"/> </filter> <filter style="color-interpolation-filters:sRGB;" id="filter8560"> <feColorMatrix values="0 0 0 0 0 0 0 0 0 0 0 0 0 0 0 0.21 0.72 0.07 0 0 " result="result1" id="feColorMatrix8532"/> <feColorMatrix values="1 0 0 0 0 0 1 0 0 0 0 0 1 0 0 0 0 0 2 0 " result="result9" id="feColorMatrix8534"/> <feComposite in2="result9" in="SourceGraphic" operator="in" result="result4" id="feComposite8536"/> <feFlood result="result2" flood-color="rgb(0,0,0)" id="feFlood8538"/> <feComposite in2="result9" operator="in" result="result10" id="feComposite8540"/> <feComposite in2="result4" operator="atop" id="feComposite8542"/> <feGaussianBlur stdDeviation="3" result="result8" id="feGaussianBlur8544"/> <feOffset dx="3" dy="3" result="result3" in="result8" id="feOffset8546"/> <feFlood flood-opacity="1" flood-color="rgb(219,173,62)" result="result5" id="feFlood8548"/> <feMerge result="result6" id="feMerge8556"> <feMergeNode in="result5" id="feMergeNode8550"/> <feMergeNode in="result3" id="feMergeNode8552"/> <feMergeNode in="result4" id="feMergeNode8554"/> </feMerge> <feComposite in2="SourceGraphic" operator="in" result="result7" id="feComposite8558"/> </filter> <filter style="color-interpolation-filters:sRGB;" id="filter8590"> <feColorMatrix values="0 0 0 0 0 0 0 0 0 0 0 0 0 0 0 0.21 0.72 0.07 0 0 " result="result1" id="feColorMatrix8562"/> <feColorMatrix values="1 0 0 0 0 0 1 0 0 0 0 0 1 0 0 0 0 0 2 0 " result="result9" id="feColorMatrix8564"/> <feComposite in2="result9" in="SourceGraphic" operator="in" result="result4" id="feComposite8566"/> <feFlood result="result2" flood-color="rgb(0,0,0)" id="feFlood8568"/> <feComposite in2="result9" operator="in" result="result10" id="feComposite8570"/> <feComposite in2="result4" operator="atop" id="feComposite8572"/> <feGaussianBlur stdDeviation="3" result="result8" id="feGaussianBlur8574"/> <feOffset dx="3" dy="3" result="result3" in="result8" id="feOffset8576"/> <feFlood flood-opacity="1" flood-color="rgb(219,173,62)" result="result5" id="feFlood8578"/> <feMerge result="result6" id="feMerge8586"> <feMergeNode in="result5" id="feMergeNode8580"/> <feMergeNode in="result3" id="feMergeNode8582"/> <feMergeNode in="result4" id="feMergeNode8584"/> </feMerge> <feComposite in2="SourceGraphic" operator="in" result="result7" id="feComposite8588"/> </filter> <filter style="color-interpolation-filters:sRGB;" id="filter8620"> <feColorMatrix values="0 0 0 0 0 0 0 0 0 0 0 0 0 0 0 0.21 0.72 0.07 0 0 " result="result1" id="feColorMatrix8592"/> <feColorMatrix values="1 0 0 0 0 0 1 0 0 0 0 0 1 0 0 0 0 0 2 0 " result="result9" id="feColorMatrix8594"/> <feComposite in2="result9" in="SourceGraphic" operator="in" result="result4" id="feComposite8596"/> <feFlood result="result2" flood-color="rgb(0,0,0)" id="feFlood8598"/> <feComposite in2="result9" operator="in" result="result10" id="feComposite8600"/> <feComposite in2="result4" operator="atop" id="feComposite8602"/> <feGaussianBlur stdDeviation="3" result="result8" id="feGaussianBlur8604"/> <feOffset dx="3" dy="3" result="result3" in="result8" id="feOffset8606"/> <feFlood flood-opacity="1" flood-color="rgb(219,173,62)" result="result5" id="feFlood8608"/> <feMerge result="result6" id="feMerge8616"> <feMergeNode in="result5" id="feMergeNode8610"/> <feMergeNode in="result3" id="feMergeNode8612"/> <feMergeNode in="result4" id="feMergeNode8614"/> </feMerge> <feComposite in2="SourceGraphic" operator="in" result="result7" id="feComposite8618"/> </filter> <filter style="color-interpolation-filters:sRGB;" id="filter8650"> <feColorMatrix values="0 0 0 0 0 0 0 0 0 0 0 0 0 0 0 0.21 0.72 0.07 0 0 " result="result1" id="feColorMatrix8622"/> <feColorMatrix values="1 0 0 0 0 0 1 0 0 0 0 0 1 0 0 0 0 0 2 0 " result="result9" id="feColorMatrix8624"/> <feComposite in2="result9" in="SourceGraphic" operator="in" result="result4" id="feComposite8626"/> <feFlood result="result2" flood-color="rgb(0,0,0)" id="feFlood8628"/> <feComposite in2="result9" operator="in" result="result10" id="feComposite8630"/> <feComposite in2="result4" operator="atop" id="feComposite8632"/> <feGaussianBlur stdDeviation="3" result="result8" id="feGaussianBlur8634"/> <feOffset dx="3" dy="3" result="result3" in="result8" id="feOffset8636"/> <feFlood flood-opacity="1" flood-color="rgb(219,173,62)" result="result5" id="feFlood8638"/> <feMerge result="result6" id="feMerge8646"> <feMergeNode in="result5" id="feMergeNode8640"/> <feMergeNode in="result3" id="feMergeNode8642"/> <feMergeNode in="result4" id="feMergeNode8644"/> </feMerge> <feComposite in2="SourceGraphic" operator="in" result="result7" id="feComposite8648"/> </filter> <filter style="color-interpolation-filters:sRGB;" id="filter8680"> <feColorMatrix values="0 0 0 0 0 0 0 0 0 0 0 0 0 0 0 0.21 0.72 0.07 0 0 " result="result1" id="feColorMatrix8652"/> <feColorMatrix values="1 0 0 0 0 0 1 0 0 0 0 0 1 0 0 0 0 0 2 0 " result="result9" id="feColorMatrix8654"/> <feComposite in2="result9" in="SourceGraphic" operator="in" result="result4" id="feComposite8656"/> <feFlood result="result2" flood-color="rgb(0,0,0)" id="feFlood8658"/> <feComposite in2="result9" operator="in" result="result10" id="feComposite8660"/> <feComposite in2="result4" operator="atop" id="feComposite8662"/> <feGaussianBlur stdDeviation="3" result="result8" id="feGaussianBlur8664"/> <feOffset dx="3" dy="3" result="result3" in="result8" id="feOffset8666"/> <feFlood flood-opacity="1" flood-color="rgb(219,173,62)" result="result5" id="feFlood8668"/> <feMerge result="result6" id="feMerge8676"> <feMergeNode in="result5" id="feMergeNode8670"/> <feMergeNode in="result3" id="feMergeNode8672"/> <feMergeNode in="result4" id="feMergeNode8674"/> </feMerge> <feComposite in2="SourceGraphic" operator="in" result="result7" id="feComposite8678"/> </filter> <filter style="color-interpolation-filters:sRGB;" id="filter8710"> <feColorMatrix values="0 0 0 0 0 0 0 0 0 0 0 0 0 0 0 0.21 0.72 0.07 0 0 " result="result1" id="feColorMatrix8682"/> <feColorMatrix values="1 0 0 0 0 0 1 0 0 0 0 0 1 0 0 0 0 0 2 0 " result="result9" id="feColorMatrix8684"/> <feComposite in2="result9" in="SourceGraphic" operator="in" result="result4" id="feComposite8686"/> <feFlood result="result2" flood-color="rgb(0,0,0)" id="feFlood8688"/> <feComposite in2="result9" operator="in" result="result10" id="feComposite8690"/> <feComposite in2="result4" operator="atop" id="feComposite8692"/> <feGaussianBlur stdDeviation="3" result="result8" id="feGaussianBlur8694"/> <feOffset dx="3" dy="3" result="result3" in="result8" id="feOffset8696"/> <feFlood flood-opacity="1" flood-color="rgb(219,173,62)" result="result5" id="feFlood8698"/> <feMerge result="result6" id="feMerge8706"> <feMergeNode in="result5" id="feMergeNode8700"/> <feMergeNode in="result3" id="feMergeNode8702"/> <feMergeNode in="result4" id="feMergeNode8704"/> </feMerge> <feComposite in2="SourceGraphic" operator="in" result="result7" id="feComposite8708"/> </filter> <filter style="color-interpolation-filters:sRGB;" id="filter8740"> <feColorMatrix values="0 0 0 0 0 0 0 0 0 0 0 0 0 0 0 0.21 0.72 0.07 0 0 " result="result1" id="feColorMatrix8712"/> <feColorMatrix values="1 0 0 0 0 0 1 0 0 0 0 0 1 0 0 0 0 0 2 0 " result="result9" id="feColorMatrix8714"/> <feComposite in2="result9" in="SourceGraphic" operator="in" result="result4" id="feComposite8716"/> <feFlood result="result2" flood-color="rgb(0,0,0)" id="feFlood8718"/> <feComposite in2="result9" operator="in" result="result10" id="feComposite8720"/> <feComposite in2="result4" operator="atop" id="feComposite8722"/> <feGaussianBlur stdDeviation="3" result="result8" id="feGaussianBlur8724"/> <feOffset dx="3" dy="3" result="result3" in="result8" id="feOffset8726"/> <feFlood flood-opacity="1" flood-color="rgb(219,173,62)" result="result5" id="feFlood8728"/> <feMerge result="result6" id="feMerge8736"> <feMergeNode in="result5" id="feMergeNode8730"/> <feMergeNode in="result3" id="feMergeNode8732"/> <feMergeNode in="result4" id="feMergeNode8734"/> </feMerge> <feComposite in2="SourceGraphic" operator="in" result="result7" id="feComposite8738"/> </filter> <filter style="color-interpolation-filters:sRGB;" id="filter8770"> <feColorMatrix values="0 0 0 0 0 0 0 0 0 0 0 0 0 0 0 0.21 0.72 0.07 0 0 " result="result1" id="feColorMatrix8742"/> <feColorMatrix values="1 0 0 0 0 0 1 0 0 0 0 0 1 0 0 0 0 0 2 0 " result="result9" id="feColorMatrix8744"/> <feComposite in2="result9" in="SourceGraphic" operator="in" result="result4" id="feComposite8746"/> <feFlood result="result2" flood-color="rgb(0,0,0)" id="feFlood8748"/> <feComposite in2="result9" operator="in" result="result10" id="feComposite8750"/> <feComposite in2="result4" operator="atop" id="feComposite8752"/> <feGaussianBlur stdDeviation="3" result="result8" id="feGaussianBlur8754"/> <feOffset dx="3" dy="3" result="result3" in="result8" id="feOffset8756"/> <feFlood flood-opacity="1" flood-color="rgb(219,173,62)" result="result5" id="feFlood8758"/> <feMerge result="result6" id="feMerge8766"> <feMergeNode in="result5" id="feMergeNode8760"/> <feMergeNode in="result3" id="feMergeNode8762"/> <feMergeNode in="result4" id="feMergeNode8764"/> </feMerge> <feComposite in2="SourceGraphic" operator="in" result="result7" id="feComposite8768"/> </filter> <filter style="color-interpolation-filters:sRGB;" id="filter8800"> <feColorMatrix values="0 0 0 0 0 0 0 0 0 0 0 0 0 0 0 0.21 0.72 0.07 0 0 " result="result1" id="feColorMatrix8772"/> <feColorMatrix values="1 0 0 0 0 0 1 0 0 0 0 0 1 0 0 0 0 0 2 0 " result="result9" id="feColorMatrix8774"/> <feComposite in2="result9" in="SourceGraphic" operator="in" result="result4" id="feComposite8776"/> <feFlood result="result2" flood-color="rgb(0,0,0)" id="feFlood8778"/> <feComposite in2="result9" operator="in" result="result10" id="feComposite8780"/> <feComposite in2="result4" operator="atop" id="feComposite8782"/> <feGaussianBlur stdDeviation="3" result="result8" id="feGaussianBlur8784"/> <feOffset dx="3" dy="3" result="result3" in="result8" id="feOffset8786"/> <feFlood flood-opacity="1" flood-color="rgb(219,173,62)" result="result5" id="feFlood8788"/> <feMerge result="result6" id="feMerge8796"> <feMergeNode in="result5" id="feMergeNode8790"/> <feMergeNode in="result3" id="feMergeNode8792"/> <feMergeNode in="result4" id="feMergeNode8794"/> </feMerge> <feComposite in2="SourceGraphic" operator="in" result="result7" id="feComposite8798"/> </filter> </defs> <g id="layer3" style="display:inline;opacity:1"> <rect style="opacity:1;vector-effect:none;fill:#ffa500;fill-opacity:1;fill-rule:evenodd;stroke:#ffd700;stroke-width:1.0006299;stroke-miterlimit:4;stroke-dasharray:none;stroke-opacity:1;paint-order:markers fill stroke;filter:url(#filter8230)" id="rect5132" width="4165.208" height="2756.6543" x="18.135883" y="31.255177" rx="30.825674" ry="30.825674"/> </g> <g transform="matrix(0.1,0,0,-0.1,-68.394699,2859.8454)" id="g142" style="fill:#000000;stroke:none;filter:url(#filter8260)"> <path d="m 1,22581 c -1,-308 -1,-314 18,-297 10,9 21,29 24,44 4,23 -25,464 -36,542 -2,14 -5,-116 -6,-289 z" id="path42"/> <path d="m 2,8765 c 1,-297 3,-511 5,-475 5,123 23,406 39,645 18,256 15,293 -26,345 -20,25 -20,24 -18,-515 z" id="path96"/> </g> <g id="layer2" style="display:inline"> <path transform="matrix(0.1,0,0,-0.1,-110.40797,2833.1602)" style="fill:#ffffff;fill-opacity:1;stroke:#000000;stroke-width:0;stroke-miterlimit:4;stroke-dasharray:none;stroke-opacity:1;filter:url(#filter8290)" d="m 7676,24739 c -216,-53 -358,-242 -359,-474 0,-164 52,-295 182,-460 160,-203 222,-310 267,-462 35,-117 40,-313 10,-381 -36,-80 -72,-90 -431,-117 -210,-17 -431,-39 -780,-80 -370,-43 -741,-85 -898,-100 -280,-28 -307,-40 -307,-142 0,-32 5,-96 10,-143 6,-47 28,-301 51,-565 22,-264 46,-554 54,-645 8,-91 24,-280 35,-420 12,-140 27,-278 35,-306 15,-52 50,-96 96,-119 86,-45 347,-45 509,-1 168,47 285,112 450,251 185,155 283,211 428,241 72,15 97,16 172,7 336,-43 595,-339 680,-779 78,-403 -15,-798 -244,-1041 -125,-132 -248,-193 -411,-201 -170,-8 -248,20 -487,176 -166,108 -228,142 -327,179 -162,61 -379,90 -551,74 -236,-22 -283,-66 -300,-287 -6,-65 -19,-236 -31,-379 -11,-143 -47,-498 -79,-790 -114,-1029 -138,-1323 -109,-1377 19,-35 74,-48 257,-63 709,-57 1447,-43 2184,41 236,26 280,24 324,-17 80,-75 49,-360 -63,-583 -46,-92 -96,-166 -204,-302 -144,-181 -197,-283 -214,-410 -20,-153 73,-326 219,-407 97,-54 178,-72 316,-71 112,1 135,4 220,32 246,82 442,268 528,504 24,65 27,86 27,203 -1,141 -1,143 -80,311 -78,167 -100,273 -92,448 9,208 68,377 152,439 62,45 31,37 525,142 69,15 301,67 515,116 850,194 831,189 860,233 24,36 31,77 49,261 53,547 74,1073 58,1466 -13,308 -36,600 -52,658 -16,58 -46,99 -92,123 -39,21 -56,23 -173,23 -111,-1 -138,-4 -186,-23 -91,-36 -166,-91 -291,-213 -133,-130 -195,-172 -291,-195 -143,-36 -278,15 -423,160 -301,301 -456,903 -329,1277 31,90 71,153 136,214 73,68 145,98 250,103 155,8 248,-33 492,-216 237,-179 388,-244 567,-246 107,-1 140,14 159,70 13,38 11,57 -28,280 -144,806 -183,1080 -246,1708 -21,211 -23,213 -236,256 -484,97 -849,137 -1529,164 -119,4 -177,23 -215,68 -32,38 -62,137 -76,251 -21,177 8,334 104,549 81,180 91,223 85,352 -4,79 -12,117 -33,171 -84,212 -242,361 -466,442 -63,22 -93,27 -204,29 -71,2 -147,-1 -169,-7 z" id="path34"/> <path transform="matrix(0.1,0,0,-0.1,-47.021356,2842.7468)" style="fill:#ffffff;fill-opacity:1;stroke:url(#pattern8802);stroke-width:0;stroke-miterlimit:4;stroke-dasharray:none;stroke-opacity:1;filter:url(#filter8320)" d="m 28990,24700 c -173,-32 -322,-153 -380,-308 -38,-100 -46,-189 -26,-287 22,-115 56,-186 169,-357 140,-212 193,-325 237,-508 28,-116 33,-270 10,-314 -8,-16 -28,-39 -43,-50 -35,-26 -124,-27 -482,-7 -345,19 -762,29 -1217,27 -386,-1 -397,-2 -425,-22 -16,-12 -31,-35 -35,-55 -4,-19 4,-203 17,-409 41,-619 55,-980 60,-1480 3,-261 7,-498 9,-527 5,-62 29,-101 73,-119 70,-30 272,-10 428,42 135,44 254,107 410,219 260,186 414,240 617,214 148,-18 283,-79 416,-185 131,-105 231,-251 288,-421 35,-104 44,-278 20,-373 -61,-243 -264,-435 -538,-510 -238,-64 -462,-40 -721,79 -201,92 -309,121 -483,128 -192,9 -389,-30 -470,-92 -59,-45 -72,-89 -89,-306 -18,-215 -45,-457 -76,-654 -32,-210 -65,-379 -203,-1048 -59,-283 -65,-331 -42,-363 13,-17 27,-19 168,-19 146,0 416,10 523,20 28,3 115,10 195,16 80,5 291,23 470,39 1074,97 1222,106 1288,76 69,-31 85,-93 57,-223 -52,-245 -197,-482 -483,-785 -117,-126 -174,-201 -227,-301 -52,-99 -76,-185 -77,-281 -1,-99 9,-151 43,-223 91,-193 318,-303 564,-274 483,57 944,540 912,956 -3,40 -21,126 -40,191 -20,66 -40,146 -46,178 -25,136 -5,326 49,483 63,183 126,274 218,316 47,22 49,22 1087,27 969,5 1043,6 1068,22 50,34 51,52 52,738 0,624 -13,1033 -37,1125 -21,85 -102,134 -259,155 -162,23 -273,-1 -474,-99 -147,-72 -244,-101 -337,-101 -326,1 -642,294 -734,678 -22,91 -22,258 0,342 68,257 260,404 506,387 160,-12 276,-66 464,-218 73,-58 160,-124 194,-148 144,-97 323,-161 454,-161 60,0 72,3 93,25 22,21 25,33 25,102 0,68 -52,760 -80,1068 -43,462 -98,936 -121,1045 -14,64 -54,112 -111,133 -74,28 -377,114 -599,171 -372,95 -718,163 -1149,226 -251,36 -303,46 -350,71 -123,62 -207,257 -217,504 -7,156 10,255 63,385 70,169 85,222 91,320 7,119 -17,226 -79,350 -79,157 -247,301 -410,352 -70,21 -212,31 -278,18 z" id="path36"/> <path transform="matrix(0.1,0,0,-0.1,-68.394699,2840.7961)" style="fill:#ffffff;fill-opacity:1;stroke:#000000;stroke-width:0;stroke-miterlimit:4;stroke-dasharray:none;stroke-opacity:1;filter:url(#filter8350)" d="m 19261,24504 c -90,-24 -171,-73 -252,-154 -113,-112 -169,-239 -169,-384 0,-102 24,-175 110,-341 102,-195 124,-268 125,-405 0,-124 -27,-224 -78,-285 -58,-71 -43,-69 -617,-70 -519,-2 -676,-9 -1050,-46 -364,-36 -802,-106 -878,-139 -55,-25 -68,-41 -81,-105 -14,-68 -47,-436 -66,-735 -8,-135 -17,-274 -20,-310 -2,-36 -7,-237 -11,-447 -8,-416 -6,-431 47,-458 62,-33 239,-10 386,50 106,43 216,110 383,235 211,157 345,215 525,226 211,14 379,-74 460,-239 84,-173 59,-410 -71,-675 -154,-312 -390,-532 -614,-572 -115,-21 -195,1 -361,96 -161,93 -237,117 -369,117 -157,0 -278,-37 -333,-103 -43,-51 -50,-97 -43,-290 3,-96 8,-310 12,-475 3,-165 7,-306 10,-313 2,-7 6,-362 10,-790 7,-840 7,-835 60,-848 87,-22 851,86 1504,212 102,20 204,36 228,36 108,2 155,-102 183,-407 21,-238 2,-431 -71,-710 -49,-185 -59,-296 -37,-412 59,-309 284,-533 575,-575 102,-14 182,0 279,47 182,90 272,269 260,520 -10,200 -62,334 -220,567 -212,313 -277,501 -277,806 0,184 16,248 75,308 49,49 94,63 407,123 502,98 676,114 1208,116 245,1 454,4 465,8 43,15 44,19 91,402 60,504 158,1042 283,1568 35,144 38,185 16,227 -21,40 -62,67 -155,101 -108,39 -230,59 -360,59 -130,0 -239,-18 -385,-64 -194,-61 -274,-78 -396,-83 -227,-11 -378,43 -520,183 -100,98 -149,222 -149,374 0,473 564,825 1045,653 92,-33 167,-78 289,-172 128,-99 235,-164 342,-208 188,-76 407,-109 467,-70 15,9 34,28 43,42 43,66 137,681 164,1085 16,227 14,775 -2,825 -20,61 -39,66 -286,76 -359,15 -802,45 -1425,98 -194,17 -235,23 -275,43 -70,34 -87,76 -85,203 3,180 51,312 193,529 43,66 88,142 99,168 115,270 -25,615 -302,747 -35,17 -83,35 -107,40 -64,15 -216,12 -279,-5 z" id="path38"/> <path transform="matrix(0.1,0,0,-0.1,-59.845362,2842.7467)" style="fill:#ffffff;fill-opacity:1;stroke:#000000;stroke-width:0;stroke-miterlimit:4;stroke-dasharray:none;stroke-opacity:1;filter:url(#filter8380)" d="m 26330,22883 c -589,-21 -1132,-47 -1504,-73 -158,-11 -190,-23 -220,-85 -17,-33 -20,-60 -19,-160 1,-299 64,-563 205,-870 109,-235 138,-344 138,-513 0,-251 -73,-437 -234,-597 -120,-119 -227,-170 -381,-181 -410,-30 -737,382 -686,866 15,139 45,235 131,420 120,258 146,373 137,613 -8,237 -45,366 -117,415 -42,28 -82,28 -585,2 -668,-35 -794,-41 -1077,-48 -261,-7 -279,-9 -298,-28 -20,-20 -21,-31 -20,-312 1,-537 -35,-961 -126,-1463 -29,-165 -57,-235 -106,-264 -50,-31 -220,-26 -351,9 -206,55 -329,118 -535,273 -207,156 -336,207 -522,206 -127,-1 -215,-20 -324,-72 -198,-93 -336,-254 -381,-442 -41,-175 5,-341 129,-464 112,-110 256,-165 438,-165 116,0 204,17 383,72 150,46 236,64 355,73 234,19 569,-72 635,-173 44,-67 42,-95 -20,-362 -92,-396 -142,-655 -204,-1053 -79,-498 -106,-771 -81,-817 16,-29 84,-48 255,-70 265,-34 586,-92 1271,-230 403,-80 674,-130 711,-130 96,0 126,33 159,175 14,58 19,118 18,215 0,163 -13,219 -94,416 -32,77 -65,167 -74,200 -63,246 11,501 194,666 343,311 861,221 1065,-187 125,-249 88,-507 -112,-770 -203,-266 -260,-400 -269,-635 -9,-218 3,-227 371,-264 540,-55 964,-82 1415,-92 346,-7 371,-3 407,61 11,22 35,108 52,190 16,83 61,301 100,485 127,611 178,949 211,1390 14,186 30,241 90,301 97,97 371,155 608,129 139,-15 232,-41 380,-106 70,-31 165,-69 213,-84 412,-137 857,37 989,385 32,84 39,257 15,358 -52,222 -213,423 -420,526 -112,56 -190,74 -310,75 -177,0 -294,-47 -514,-208 -216,-159 -413,-241 -660,-277 -96,-13 -206,-7 -248,14 -39,21 -69,56 -81,97 -6,21 -13,258 -16,595 -4,308 -9,598 -11,645 -3,47 -10,184 -15,305 -10,198 -30,548 -45,760 -14,201 -26,239 -84,255 -33,9 -139,10 -331,3 z" id="path44"/> <path transform="matrix(0.1,0,0,-0.1,-87.669368,2836.9721)" style="fill:#ffffff;fill-opacity:1;stroke:#000000;stroke-width:0;stroke-miterlimit:4;stroke-dasharray:none;stroke-opacity:1;filter:url(#filter8410)" d="m 10468,22614 c -10,-21 -8,-68 5,-223 38,-418 105,-884 213,-1481 73,-403 78,-472 39,-519 -35,-41 -84,-55 -190,-53 -137,1 -294,53 -429,140 -23,15 -104,75 -182,133 -207,156 -299,195 -443,187 -61,-4 -92,-11 -135,-33 -63,-32 -143,-111 -174,-171 -170,-334 -32,-970 275,-1265 103,-99 198,-142 313,-141 117,1 189,42 355,202 165,159 226,195 377,226 153,31 329,-13 384,-96 38,-58 51,-114 68,-292 55,-585 48,-1133 -26,-1920 -25,-275 -24,-288 40,-288 21,0 128,18 238,39 442,87 786,134 1209,166 44,3 191,10 326,14 279,9 300,14 351,87 35,49 67,173 75,289 11,168 -30,315 -141,509 -115,201 -148,304 -148,461 0,148 32,258 107,375 126,196 353,310 618,310 115,0 191,-11 287,-42 431,-139 635,-573 451,-963 -21,-44 -75,-135 -119,-203 -140,-210 -198,-351 -228,-554 -27,-183 -6,-276 70,-312 39,-19 81,-25 491,-71 727,-84 1082,-109 1430,-104 244,4 256,7 277,69 18,48 16,1046 -3,1710 -8,278 -14,600 -14,715 0,206 1,211 25,255 54,96 184,151 376,158 146,5 213,-9 329,-70 265,-138 252,-133 341,-136 101,-5 171,14 269,71 143,83 319,297 402,488 74,173 105,380 73,500 -63,233 -295,347 -566,279 -119,-30 -230,-90 -391,-211 -222,-167 -348,-234 -527,-279 -68,-17 -110,-21 -181,-18 -88,3 -96,5 -125,33 -51,49 -53,72 -46,515 4,223 9,432 11,465 3,33 10,148 15,255 6,107 18,276 26,375 27,337 29,408 10,428 -10,9 -32,17 -49,17 -18,0 -187,-32 -377,-70 -1289,-264 -1502,-302 -1965,-355 -218,-25 -265,-37 -302,-77 -33,-35 -43,-72 -43,-156 0,-191 92,-356 295,-532 130,-113 201,-213 223,-315 22,-99 23,-132 8,-204 -39,-187 -196,-352 -408,-429 -333,-120 -745,-27 -999,227 -179,179 -255,399 -200,578 11,37 37,95 56,128 114,194 140,280 132,445 -9,202 -57,299 -166,334 -25,8 -98,22 -161,31 -289,41 -595,107 -1214,260 -639,158 -618,154 -638,109 z" id="path46"/> <path transform="matrix(0.1,0,0,-0.1,-29.922681,2834.1974)" style="fill:#ffffff;fill-opacity:1;stroke:#000000;stroke-width:0;stroke-miterlimit:4;stroke-dasharray:none;stroke-opacity:1;filter:url(#filter8440)" d="m 37150,22405 c -347,-78 -445,-103 -885,-220 -673,-180 -958,-245 -1272,-295 -153,-24 -204,-41 -237,-81 -40,-47 -50,-101 -50,-254 0,-239 38,-357 195,-609 82,-131 125,-237 140,-343 48,-340 -161,-691 -456,-768 -75,-19 -184,-19 -260,0 -365,93 -610,535 -509,921 8,32 44,124 79,204 72,165 99,251 114,363 22,162 7,346 -35,433 -30,64 -63,81 -176,94 -448,51 -783,125 -1398,310 -129,38 -246,70 -260,70 -55,0 -61,-37 -35,-229 43,-328 77,-674 130,-1333 48,-590 52,-698 32,-738 -23,-46 -71,-62 -167,-56 -179,11 -346,82 -538,228 -68,51 -151,114 -185,141 -339,261 -714,176 -823,-188 -26,-84 -23,-253 5,-360 100,-383 449,-641 773,-574 29,6 119,42 200,80 198,94 277,113 433,106 235,-10 357,-78 385,-215 29,-140 51,-988 42,-1595 -4,-251 0,-270 55,-281 15,-3 120,-10 233,-16 488,-25 844,-64 1465,-161 190,-30 332,-48 352,-44 18,3 39,16 48,28 31,44 12,204 -40,342 -39,106 -97,202 -216,362 -126,171 -180,271 -205,379 -88,398 253,657 676,515 368,-124 633,-466 618,-795 -4,-81 -10,-105 -55,-217 -65,-160 -77,-221 -70,-357 12,-235 91,-388 218,-422 88,-24 538,-71 856,-90 327,-19 936,-7 1020,21 53,17 56,45 28,248 -33,233 -61,471 -80,661 -54,565 -57,1217 -6,1337 46,106 173,185 386,239 97,25 128,28 260,28 182,0 240,-13 411,-89 67,-30 150,-62 185,-72 88,-23 223,-21 323,6 369,98 767,504 877,896 30,104 32,273 6,357 -42,136 -155,245 -300,290 -105,32 -260,30 -379,-6 -115,-34 -250,-101 -373,-186 -409,-282 -516,-343 -724,-414 -192,-67 -405,-95 -489,-65 -34,12 -66,56 -76,105 -4,17 9,163 28,325 73,613 97,952 106,1539 8,437 7,456 -14,479 -30,33 -103,26 -366,-34 z" id="path50"/> <path transform="matrix(0.1,0,0,-0.1,-94.042711,2851.2961)" style="fill:#ffffff;fill-opacity:1;stroke:#000000;stroke-width:0;stroke-miterlimit:4;stroke-dasharray:none;stroke-opacity:1;filter:url(#filter8470)" d="m 13410,19189 c -125,-32 -214,-82 -301,-169 -91,-91 -139,-181 -165,-310 -35,-175 -2,-322 123,-542 130,-229 158,-322 156,-513 -2,-188 -46,-337 -120,-407 -56,-54 -88,-60 -353,-69 -583,-20 -1086,-81 -1643,-200 -182,-38 -209,-53 -227,-119 -6,-21 -41,-316 -80,-656 -38,-340 -89,-789 -115,-997 -25,-207 -45,-393 -45,-413 0,-24 8,-43 25,-59 29,-30 86,-33 194,-10 164,34 308,109 506,264 218,171 339,224 510,225 76,0 117,-5 170,-21 174,-54 314,-201 360,-378 99,-382 -267,-818 -738,-878 -120,-15 -210,-1 -378,61 -74,28 -162,56 -197,62 -136,27 -383,-8 -481,-68 -72,-44 -87,-84 -115,-317 -75,-604 -146,-1376 -146,-1587 0,-71 2,-78 26,-97 18,-14 41,-21 70,-21 48,0 387,34 849,85 713,79 1187,121 1465,132 202,7 252,-3 327,-71 60,-54 93,-114 129,-231 26,-83 28,-103 28,-255 0,-154 -2,-170 -28,-249 -15,-47 -68,-164 -117,-260 -114,-224 -134,-296 -126,-461 6,-134 23,-207 73,-308 133,-273 415,-442 739,-442 218,0 396,72 545,220 87,87 139,172 177,285 24,71 27,96 27,220 1,213 -22,274 -207,556 -156,238 -239,422 -278,622 -46,234 -11,341 120,368 120,25 882,-36 1851,-147 223,-25 442,-47 487,-48 97,-1 108,7 119,94 9,73 -3,599 -21,920 -24,410 -68,889 -89,949 -15,47 -69,87 -146,108 -52,14 -106,18 -270,18 -234,0 -286,-8 -515,-80 -77,-25 -169,-51 -205,-59 -199,-45 -461,-22 -710,60 -199,66 -384,172 -502,286 -219,211 -236,456 -45,635 106,99 247,160 432,188 127,19 204,19 352,0 164,-22 317,-75 558,-195 306,-152 479,-201 720,-204 114,-1 135,2 170,20 67,35 69,51 35,346 -74,632 -102,1006 -119,1543 -9,278 -14,306 -60,324 -14,5 -174,12 -356,15 -409,6 -883,48 -1656,146 -189,24 -230,43 -275,130 -14,28 -18,57 -17,145 0,134 23,259 70,385 48,129 71,173 175,332 147,228 178,307 178,468 0,307 -207,552 -532,630 -112,27 -284,27 -388,-1 z" id="path60"/> <path transform="matrix(0.1,0,0,-0.1,-81.218705,2855.5707)" style="fill:#ffffff;fill-opacity:1;stroke:#000000;stroke-width:0;stroke-miterlimit:4;stroke-dasharray:none;stroke-opacity:1;filter:url(#filter8500)" d="m 23875,19045 c -128,-28 -227,-81 -320,-172 -98,-97 -156,-213 -176,-354 -16,-108 3,-226 56,-354 114,-278 141,-393 132,-565 -7,-129 -29,-238 -63,-307 -41,-84 -111,-113 -226,-93 -35,6 -333,65 -663,130 -814,162 -1280,240 -1444,241 -78,1 -96,-14 -111,-90 -21,-114 -8,-559 26,-841 46,-394 154,-876 297,-1338 52,-168 83,-224 145,-263 99,-63 281,-91 422,-67 107,19 152,41 281,133 136,98 198,119 323,113 328,-18 688,-366 881,-852 67,-169 100,-376 84,-531 -21,-214 -116,-354 -273,-400 -62,-19 -93,-19 -181,0 -140,30 -249,97 -505,315 -228,193 -417,287 -603,298 -97,5 -127,-4 -146,-45 -18,-38 -14,-68 33,-259 162,-656 217,-1064 237,-1784 8,-267 16,-405 24,-426 8,-19 26,-37 48,-48 45,-21 988,-210 1347,-270 146,-25 360,-57 475,-71 252,-32 298,-48 344,-121 45,-69 65,-174 65,-334 0,-212 -43,-340 -184,-549 -124,-186 -166,-313 -157,-476 10,-162 76,-305 190,-411 223,-208 542,-200 762,21 112,112 175,244 195,413 16,133 -1,221 -83,414 -120,282 -149,412 -151,663 0,170 8,222 46,270 35,44 78,55 277,71 296,23 600,61 906,114 61,10 191,33 290,50 389,67 415,73 435,110 35,66 -23,452 -221,1465 -61,308 -117,596 -125,640 -22,119 -54,178 -110,206 -41,19 -57,21 -152,17 -192,-10 -302,-62 -476,-228 -182,-172 -247,-205 -416,-205 -118,0 -199,26 -305,96 -227,152 -407,449 -455,752 -19,115 -8,283 24,382 72,227 257,357 486,342 140,-9 216,-40 435,-180 195,-126 343,-172 525,-165 118,5 186,28 215,72 23,35 22,107 -4,331 -71,620 -60,1183 35,1813 18,118 13,166 -19,184 -15,8 -123,14 -347,19 -446,10 -808,33 -1330,85 -290,28 -369,39 -414,58 -41,17 -82,67 -96,114 -16,58 -12,208 9,307 37,180 96,296 258,512 48,65 103,151 121,191 35,74 61,193 61,272 1,118 -53,266 -135,370 -139,177 -380,263 -599,215 z" id="path62"/> <path transform="matrix(0.1,0,0,-0.1,-32.394699,2859.8454)" style="fill:#ffffff;fill-opacity:1;stroke:#000000;stroke-width:0;stroke-miterlimit:4;stroke-dasharray:none;stroke-opacity:1;filter:url(#filter8530)" d="m 34441,18599 c -118,-23 -232,-108 -278,-207 -84,-180 -36,-375 153,-622 163,-213 237,-350 279,-513 45,-178 40,-258 -18,-301 -38,-28 -95,-25 -352,18 -611,101 -1145,160 -1570,173 l -220,6 -28,-24 c -32,-27 -31,-24 -68,-469 -11,-140 -47,-493 -80,-785 -92,-824 -100,-898 -93,-930 12,-57 34,-86 82,-108 41,-18 65,-21 177,-20 274,2 455,53 790,221 220,111 303,135 470,135 159,1 253,-21 400,-92 303,-146 504,-421 522,-716 20,-326 -206,-606 -584,-722 -82,-25 -101,-27 -273,-27 -241,0 -273,9 -580,159 -327,160 -461,194 -718,182 -234,-10 -323,-46 -366,-148 -8,-20 -19,-102 -26,-199 -32,-479 -67,-806 -160,-1490 -52,-384 -80,-621 -80,-676 0,-66 26,-101 88,-115 68,-15 426,-38 697,-45 138,-3 594,-7 1015,-8 757,-1 765,-1 811,-22 92,-43 115,-133 84,-328 -36,-231 -96,-358 -285,-601 -147,-189 -191,-305 -170,-445 32,-206 216,-380 485,-457 73,-20 119,-26 240,-30 173,-6 284,12 420,66 261,104 424,322 408,546 -7,114 -46,198 -162,355 -78,105 -117,181 -142,278 -56,221 23,529 164,636 56,43 138,66 351,97 635,93 999,186 2125,544 94,30 140,66 143,112 6,121 -49,643 -133,1238 -95,679 -100,704 -164,731 -70,29 -244,11 -378,-40 -91,-34 -172,-83 -293,-176 -136,-105 -191,-138 -279,-166 -308,-98 -612,45 -768,360 -48,96 -67,171 -74,293 -7,123 10,209 64,323 88,185 293,310 508,310 125,0 233,-34 412,-127 179,-94 325,-131 474,-120 167,13 245,54 256,133 3,22 -11,141 -31,269 -106,684 -241,1503 -257,1563 -21,77 -15,76 -382,63 -434,-16 -787,-2 -1252,50 -349,39 -386,48 -461,123 -86,87 -144,273 -144,464 0,112 19,190 86,347 46,111 56,211 30,328 -82,369 -517,674 -865,606 z" id="path64"/> <path transform="matrix(0.1,0,0,-0.1,-55.570693,2855.5707)" style="fill:#ffffff;fill-opacity:1;stroke:#000000;stroke-width:0;stroke-miterlimit:4;stroke-dasharray:none;stroke-opacity:1;filter:url(#filter8560)" d="m 30885,17150 c -777,-6 -741,-2 -810,-83 -66,-77 -136,-291 -150,-457 -9,-107 6,-211 49,-360 45,-152 48,-168 48,-265 -1,-110 -23,-199 -82,-320 -145,-298 -436,-542 -765,-641 -78,-24 -108,-28 -225,-28 -116,-1 -145,3 -205,22 -101,34 -171,77 -240,147 -101,102 -145,214 -145,370 0,218 88,382 364,677 248,266 408,550 423,755 5,66 4,73 -19,96 -16,16 -42,28 -69,32 -47,7 -267,-8 -789,-55 -809,-73 -1080,-93 -1470,-110 -296,-14 -319,-20 -343,-96 -19,-58 -39,-179 -66,-404 -58,-476 -61,-972 -10,-1455 11,-104 22,-237 25,-295 5,-97 3,-108 -18,-144 -60,-103 -293,-134 -516,-70 -101,29 -166,62 -324,160 -66,42 -145,87 -176,101 -285,126 -552,16 -648,-267 -15,-45 -19,-85 -19,-215 0,-145 3,-168 27,-251 96,-320 303,-563 542,-636 55,-17 85,-20 158,-16 129,8 197,44 354,190 67,62 147,128 177,146 156,94 390,127 513,72 78,-34 109,-98 149,-310 15,-74 51,-259 80,-410 168,-854 202,-1043 250,-1393 28,-202 30,-213 53,-239 22,-26 58,-23 364,27 454,74 795,115 1138,139 202,14 223,20 257,73 12,18 18,53 21,118 10,227 -57,464 -195,687 -110,180 -141,239 -173,336 -43,125 -53,294 -25,417 48,216 207,391 410,451 80,24 238,24 319,0 131,-39 234,-104 333,-210 191,-204 251,-494 157,-757 -13,-36 -47,-115 -75,-175 -106,-225 -135,-363 -126,-588 6,-148 23,-233 55,-276 40,-53 66,-60 293,-76 249,-17 524,-45 799,-80 1083,-138 1113,-141 1149,-105 27,27 37,71 56,241 9,80 32,264 51,410 19,146 41,315 49,375 27,209 55,454 74,652 18,186 27,285 51,612 12,162 34,222 101,270 88,64 277,98 488,88 218,-11 347,-50 614,-184 199,-100 267,-126 377,-147 412,-79 818,119 938,456 21,62 25,90 25,183 0,97 -3,121 -30,201 -74,216 -216,376 -428,481 -190,95 -395,117 -593,63 -50,-14 -160,-60 -272,-116 -321,-159 -475,-202 -745,-211 -205,-7 -266,5 -326,65 -62,63 -62,71 17,727 111,922 165,1486 148,1552 -17,69 109,65 -1419,53 z" id="path72"/> <path transform="matrix(0.1,0,0,-0.1,-115.41605,2851.2961)" style="fill:#ffffff;fill-opacity:1;stroke:#000000;stroke-width:0;stroke-miterlimit:4;stroke-dasharray:none;stroke-opacity:1;filter:url(#filter8590)" d="m 10245,16785 c -269,-63 -638,-146 -820,-185 -451,-96 -451,-96 -495,-140 -73,-73 -116,-250 -107,-445 6,-141 24,-207 96,-365 63,-137 81,-206 81,-311 0,-98 -20,-188 -65,-286 -89,-194 -231,-337 -430,-433 -147,-72 -204,-85 -370,-84 -127,0 -147,2 -220,28 -279,97 -411,326 -339,585 31,109 55,147 274,431 161,210 237,413 229,615 -4,82 -6,88 -34,112 -28,24 -33,25 -120,20 -49,-3 -153,-12 -230,-21 -421,-47 -960,-71 -1365,-62 -269,6 -594,20 -705,30 -231,22 -269,18 -298,-31 -28,-49 -40,-457 -35,-1226 5,-656 5,-659 -16,-690 -33,-49 -75,-67 -181,-80 -73,-8 -126,-8 -214,1 -198,20 -288,52 -582,210 -137,73 -236,102 -353,102 -144,0 -264,-47 -357,-140 -203,-202 -177,-540 58,-760 145,-136 345,-200 532,-171 100,16 164,40 289,109 193,108 336,145 552,145 188,0 288,-32 326,-105 8,-16 22,-82 30,-146 35,-284 127,-1038 154,-1252 30,-248 38,-283 67,-298 10,-6 327,-12 748,-16 402,-3 796,-9 876,-12 163,-7 200,2 231,54 28,47 41,144 36,269 -7,146 -29,220 -108,363 -83,148 -101,200 -107,300 -5,73 -2,95 19,156 64,182 216,318 443,393 325,108 645,20 757,-206 27,-55 33,-80 36,-152 8,-167 -38,-281 -188,-471 -155,-194 -210,-311 -233,-489 -20,-163 10,-232 108,-247 66,-9 1106,2 1335,15 343,20 605,42 643,53 75,23 78,31 102,348 40,527 150,1493 181,1597 32,104 114,162 289,205 70,17 118,22 215,22 136,-1 161,-7 400,-94 l 115,-41 120,4 c 176,7 302,52 448,159 323,239 391,640 147,873 -127,120 -295,161 -474,115 -109,-28 -188,-73 -371,-210 -235,-177 -414,-259 -606,-276 -123,-12 -169,23 -169,128 0,29 18,199 40,378 59,471 180,1567 182,1645 2,73 -12,96 -56,94 -12,0 -241,-52 -511,-114 z" id="path74"/> <path transform="matrix(0.1,0,0,-0.1,-89.768042,2881.2187)" style="fill:#ffffff;fill-opacity:1;stroke:#000000;stroke-width:0;stroke-miterlimit:4;stroke-dasharray:none;stroke-opacity:1;filter:url(#filter8620)" d="m 19120,13795 c -98,-27 -181,-75 -255,-150 -114,-114 -165,-244 -165,-420 0,-147 35,-255 142,-432 155,-257 197,-377 205,-588 9,-224 -35,-378 -126,-440 l -43,-30 -202,2 c -347,3 -900,42 -1471,104 -154,17 -323,33 -376,36 -147,8 -143,18 -154,-347 -6,-191 -11,-311 -45,-950 -24,-459 -35,-605 -61,-874 -19,-196 -19,-212 -4,-252 19,-50 56,-77 130,-92 92,-20 154,-23 242,-12 120,15 237,56 395,139 158,82 243,110 358,118 285,18 547,-172 616,-447 23,-90 15,-221 -19,-318 -77,-220 -290,-405 -542,-471 -217,-57 -384,-27 -595,108 -41,27 -95,58 -120,71 -176,90 -437,115 -564,55 -57,-27 -81,-79 -126,-280 -23,-99 -99,-416 -170,-705 -171,-698 -234,-984 -228,-1036 2,-18 13,-34 29,-43 24,-13 46,-12 220,13 802,113 1336,169 1859,195 293,14 361,3 424,-71 67,-78 95,-272 62,-428 -23,-106 -51,-168 -136,-299 -89,-139 -118,-207 -127,-296 -29,-310 347,-640 832,-731 135,-25 323,-16 430,20 214,73 325,218 325,426 0,182 -66,309 -294,565 -165,184 -248,322 -287,474 -33,130 -23,240 27,292 58,61 86,61 1174,9 385,-19 749,-48 1071,-86 117,-14 141,-14 165,-2 28,13 29,17 28,78 0,36 -13,157 -27,270 -49,381 -60,585 -53,990 3,201 9,418 12,482 l 6,118 -34,34 c -91,91 -411,110 -668,40 -52,-14 -164,-57 -250,-94 -210,-93 -306,-120 -450,-127 -352,-17 -626,163 -670,440 -26,168 53,365 213,530 195,200 499,303 747,253 102,-21 170,-49 307,-126 247,-141 436,-194 693,-195 148,0 180,10 223,67 43,58 176,978 211,1468 15,211 19,497 6,534 -18,57 -59,70 -392,126 -458,76 -934,132 -1373,160 -463,29 -457,28 -508,89 -44,52 -52,94 -52,256 1,246 39,385 186,680 129,259 150,351 114,517 -53,253 -240,468 -486,560 -74,27 -99,31 -204,34 -85,3 -136,-1 -175,-11 z" id="path78"/> <path transform="matrix(0.1,0,0,-0.1,-64.12003,2868.3947)" style="fill:#ffffff;fill-opacity:1;stroke:#000000;stroke-width:0;stroke-miterlimit:4;stroke-dasharray:none;stroke-opacity:1;filter:url(#filter8650)" d="m 28900,13599 c -225,-23 -404,-196 -456,-439 -19,-89 -14,-234 10,-325 22,-82 81,-202 157,-321 117,-185 182,-351 214,-549 26,-160 16,-332 -23,-384 -38,-52 -63,-62 -178,-72 -527,-45 -748,-72 -1174,-139 -381,-61 -387,-62 -418,-93 -25,-25 -25,-27 -21,-174 8,-289 2,-800 -10,-958 -23,-288 -96,-836 -151,-1124 -13,-70 -13,-124 1,-155 24,-53 129,-69 279,-42 156,28 292,98 509,260 198,147 341,199 486,176 204,-32 371,-202 432,-440 21,-86 21,-262 -1,-353 -54,-224 -221,-429 -432,-528 -105,-50 -188,-69 -300,-69 -133,0 -190,15 -355,96 -205,101 -255,115 -415,121 -219,9 -340,-31 -377,-126 -9,-22 -26,-107 -36,-189 -64,-479 -73,-947 -26,-1402 27,-270 38,-290 149,-290 158,0 1116,86 1779,160 196,22 372,40 390,40 159,0 257,-151 257,-397 0,-132 -16,-187 -109,-383 -103,-216 -119,-295 -86,-424 70,-270 350,-466 665,-466 246,0 485,120 609,305 78,118 112,250 92,361 -21,112 -70,192 -210,337 -131,136 -200,225 -244,312 -67,135 -94,297 -63,380 33,84 89,104 376,134 625,66 1203,101 1900,114 100,2 163,7 177,15 47,26 53,-11 -142,837 -57,248 -129,565 -160,705 -34,152 -65,268 -77,288 -42,69 -164,99 -358,88 -206,-11 -352,-56 -540,-164 -234,-136 -343,-167 -555,-159 -160,5 -229,22 -360,90 -368,190 -431,681 -125,988 162,163 381,216 620,149 41,-12 154,-59 250,-105 273,-131 404,-165 638,-166 135,0 207,11 247,37 44,29 47,69 20,289 -46,378 -58,584 -59,1000 0,223 5,466 13,568 19,267 24,261 -266,296 -92,11 -400,49 -683,85 -524,66 -723,87 -1045,110 -210,15 -243,26 -285,93 -51,80 -65,164 -65,388 0,187 2,206 27,298 15,53 56,161 92,240 75,167 91,211 107,303 24,140 -11,321 -88,454 -75,129 -230,256 -365,299 -55,18 -165,27 -238,20 z" id="path80"/> <path transform="matrix(0.1,0,0,-0.1,-132.51473,2868.3948)" style="fill:#ffffff;fill-opacity:1;stroke:#000000;stroke-width:0;stroke-miterlimit:4;stroke-dasharray:none;stroke-opacity:1;filter:url(#filter8680)" d="m 7877,13439 c -79,-12 -215,-60 -284,-100 -86,-51 -185,-154 -221,-230 -80,-168 -64,-269 83,-539 66,-122 80,-185 80,-365 0,-98 -5,-176 -13,-201 -17,-56 -51,-104 -90,-127 -33,-19 -45,-20 -585,-7 -653,15 -1190,11 -1225,-8 -41,-24 -43,-49 -22,-275 56,-599 77,-990 95,-1732 3,-126 9,-243 12,-260 9,-49 39,-99 70,-117 42,-24 149,-41 216,-33 145,16 247,69 394,206 170,158 265,200 394,177 83,-15 147,-54 229,-137 110,-113 192,-281 236,-482 25,-117 30,-356 10,-477 -46,-272 -171,-480 -340,-562 -61,-30 -78,-34 -151,-34 -75,0 -90,3 -157,37 -41,20 -109,67 -152,104 -133,115 -196,162 -260,193 -169,83 -399,74 -465,-18 -12,-17 -25,-55 -30,-84 -5,-29 -12,-242 -15,-473 -8,-603 -33,-975 -111,-1680 -41,-367 -43,-405 -15,-430 18,-17 35,-18 213,-11 105,3 253,10 327,16 74,5 214,14 310,20 238,15 566,39 675,50 299,31 320,15 319,-245 0,-139 -4,-174 -27,-268 -34,-135 -80,-248 -167,-407 -87,-157 -121,-258 -128,-371 -12,-211 85,-374 268,-450 47,-20 73,-23 175,-23 105,0 129,3 187,26 106,40 176,86 263,173 138,137 201,288 193,465 -6,112 -25,169 -100,291 -111,183 -145,280 -155,450 -10,174 24,338 85,411 47,56 8,48 832,162 363,51 809,107 1034,131 170,19 219,34 234,73 7,17 13,248 16,602 3,363 13,724 25,980 12,223 21,439 21,480 0,139 -49,184 -219,202 -128,14 -280,-6 -409,-55 -106,-39 -160,-71 -297,-172 -171,-128 -283,-175 -411,-175 -302,0 -552,349 -571,796 -19,438 185,784 492,837 77,13 180,1 265,-32 31,-11 132,-70 224,-131 256,-166 389,-207 636,-197 180,7 270,39 306,109 26,50 32,129 38,473 4,182 8,416 11,520 3,105 7,325 10,490 3,165 7,329 10,365 2,36 7,154 11,262 l 6,197 -25,25 c -32,31 -41,32 -338,11 -416,-28 -720,-38 -1214,-39 -497,-1 -500,-1 -545,21 -62,31 -82,69 -88,165 -8,139 31,302 101,428 35,63 62,101 131,185 79,95 143,200 167,273 32,92 31,213 -1,297 -29,74 -111,159 -190,198 -100,49 -245,66 -383,46 z" id="path82"/> <path transform="matrix(0.1,0,0,-0.1,-111.14139,2872.6693)" style="fill:#ffffff;fill-opacity:1;stroke:#000000;stroke-width:0;stroke-miterlimit:4;stroke-dasharray:none;stroke-opacity:1;filter:url(#filter8710)" d="m 12650,12120 c -356,-25 -722,-59 -1350,-125 -283,-30 -588,-61 -677,-70 -282,-28 -282,-28 -294,-232 -7,-139 -14,-436 -24,-1003 -17,-996 -20,-1082 -40,-1155 -35,-126 -188,-194 -441,-195 -165,0 -338,42 -464,113 -30,17 -109,68 -177,113 -183,123 -298,159 -432,135 -104,-19 -165,-52 -245,-134 -128,-129 -193,-299 -203,-528 -7,-144 6,-254 44,-374 104,-331 342,-506 598,-440 76,20 126,48 260,146 61,45 135,95 165,113 177,103 388,148 592,126 132,-14 196,-42 235,-101 27,-41 28,-46 29,-183 1,-78 -2,-199 -6,-271 -9,-143 -26,-495 -36,-760 -12,-294 -9,-945 5,-986 17,-53 49,-63 169,-55 53,3 196,13 317,21 418,28 713,37 1375,43 638,7 667,8 705,27 75,37 109,147 108,340 -1,139 -27,227 -122,420 -104,211 -106,218 -106,360 1,105 4,130 29,200 42,123 109,227 211,330 105,107 188,168 312,230 402,200 831,117 977,-187 66,-139 73,-293 21,-458 -50,-155 -107,-250 -266,-442 -211,-253 -285,-407 -296,-613 -6,-116 3,-146 49,-175 31,-19 48,-20 233,-19 254,3 475,14 790,39 407,34 996,105 1085,131 75,23 80,34 155,379 26,118 100,429 165,690 65,261 141,575 169,696 66,285 73,304 126,353 60,55 130,74 270,74 189,0 331,-46 525,-170 168,-107 244,-129 413,-121 300,15 578,231 642,499 76,324 -151,623 -490,646 -127,8 -199,-12 -424,-122 -232,-112 -320,-137 -481,-138 -168,-1 -276,31 -321,95 -32,44 -35,120 -15,328 23,240 33,389 51,725 8,165 20,381 25,480 21,387 32,705 29,821 -4,137 -13,156 -78,174 -34,9 -427,55 -846,100 -551,59 -1198,110 -1384,110 -188,0 -227,-60 -186,-293 35,-202 104,-361 263,-606 190,-292 216,-362 217,-586 0,-119 -4,-151 -23,-215 -84,-267 -264,-450 -532,-541 -168,-57 -404,-53 -581,10 -265,94 -475,312 -550,573 -29,103 -37,279 -15,384 20,101 47,166 145,357 100,196 116,257 115,442 -1,122 -4,151 -27,228 -73,239 -137,271 -487,247 z" id="path88"/> <path transform="matrix(0.1,0,0,-0.1,-38.472018,2868.3948)" style="fill:#ffffff;fill-opacity:1;stroke:#000000;stroke-width:0;stroke-miterlimit:4;stroke-dasharray:none;stroke-opacity:1;filter:url(#filter8740)" d="m 37995,11863 c -11,-3 -146,-46 -300,-95 -869,-277 -1319,-388 -1900,-468 -177,-24 -234,-41 -282,-83 -52,-46 -80,-96 -108,-194 -69,-238 -34,-426 119,-633 155,-208 194,-324 166,-490 -72,-429 -679,-683 -1215,-508 -281,91 -472,293 -488,515 -10,128 35,248 144,392 167,220 210,288 255,406 61,161 83,379 44,442 -10,17 -29,38 -42,45 -18,10 -214,14 -963,19 -517,4 -976,10 -1020,13 -222,18 -506,35 -517,32 -7,-3 -25,-7 -39,-10 -68,-15 -84,-164 -83,-806 0,-496 6,-614 55,-1015 31,-248 23,-286 -66,-326 -54,-24 -228,-42 -328,-34 -220,17 -361,58 -606,175 -193,92 -288,120 -405,120 -157,0 -280,-48 -388,-149 -75,-70 -118,-138 -153,-243 -126,-380 137,-730 567,-755 187,-11 326,28 546,154 156,89 281,135 434,157 183,27 366,16 465,-29 72,-33 104,-80 131,-197 78,-335 291,-1266 328,-1430 24,-109 51,-216 60,-238 18,-45 47,-64 109,-73 56,-9 1174,-22 1795,-22 490,0 517,1 547,19 40,25 53,54 53,121 0,190 -85,357 -288,568 -65,67 -137,147 -161,176 -142,181 -171,393 -76,555 64,109 219,212 375,249 397,96 932,-102 1147,-425 58,-88 85,-164 91,-259 6,-109 -13,-166 -104,-301 -126,-187 -150,-260 -141,-429 6,-120 26,-194 64,-240 49,-58 93,-69 367,-95 389,-38 697,-76 1386,-174 363,-51 613,-82 692,-83 109,-3 117,6 130,154 13,147 3,782 -16,1039 -8,107 -29,357 -47,555 -27,307 -30,367 -19,405 37,134 240,208 545,197 165,-5 249,-27 415,-105 146,-70 222,-93 315,-99 264,-17 509,179 615,492 44,127 53,199 47,364 -4,120 -9,162 -31,236 -54,178 -149,319 -270,397 -152,98 -345,93 -507,-14 -35,-23 -125,-103 -199,-178 -221,-223 -315,-292 -485,-357 -111,-43 -184,-57 -300,-57 -84,-1 -106,3 -141,21 -81,43 -99,99 -108,343 -4,85 -8,202 -11,260 -3,58 -7,191 -10,295 -29,1020 -52,1541 -71,1640 -12,58 -48,75 -119,58 z" id="path90"/> <path transform="matrix(0.1,0,0,-0.1,-81.218705,2876.944)" style="fill:#ffffff;fill-opacity:1;stroke:#000000;stroke-width:0;stroke-miterlimit:4;stroke-dasharray:none;stroke-opacity:1;filter:url(#filter8770)" d="m 22105,11380 c -15,-17 -19,-49 -26,-232 -12,-318 -31,-561 -70,-878 -34,-279 -120,-824 -140,-887 -16,-51 -78,-99 -146,-113 -89,-19 -313,-7 -455,24 -150,33 -240,68 -411,161 -197,107 -257,127 -395,133 -129,5 -201,-6 -314,-49 -200,-77 -379,-254 -450,-445 -18,-48 -23,-80 -23,-169 0,-105 2,-114 34,-179 79,-160 249,-261 475,-282 153,-14 310,25 570,140 70,31 169,68 218,81 299,80 664,42 750,-77 28,-40 29,-96 10,-400 -25,-410 -5,-851 63,-1350 26,-192 40,-235 85,-261 18,-11 132,-35 297,-63 147,-24 450,-79 673,-120 602,-112 950,-174 981,-174 81,0 104,42 103,190 -2,197 -35,323 -144,540 -100,199 -122,266 -127,386 -9,173 33,289 144,400 107,107 252,164 416,164 107,0 189,-20 279,-67 141,-74 243,-198 299,-364 26,-78 30,-104 30,-197 -1,-165 -29,-251 -142,-433 -33,-54 -71,-125 -85,-160 -86,-212 -65,-499 42,-561 51,-30 330,-58 789,-79 292,-14 1030,-7 1086,10 58,18 63,43 45,202 -51,435 -51,890 0,1339 36,324 52,386 112,447 64,64 214,98 393,91 152,-7 229,-29 388,-110 194,-99 233,-111 366,-111 127,0 214,23 332,88 94,52 227,188 275,280 170,327 79,725 -196,861 -175,86 -350,46 -596,-137 -183,-136 -285,-193 -427,-236 -74,-22 -108,-26 -213,-27 -150,-1 -185,12 -210,82 -14,40 -12,59 38,364 103,631 142,1032 142,1478 0,215 -16,497 -29,534 -6,14 -22,33 -36,42 -25,16 -33,16 -178,-10 -767,-135 -1082,-180 -1452,-207 -246,-17 -258,-28 -263,-236 -6,-224 30,-410 120,-613 85,-193 109,-273 115,-380 13,-222 -62,-414 -222,-575 -63,-64 -98,-89 -165,-122 -111,-54 -174,-67 -297,-61 -116,6 -186,30 -285,95 -192,126 -311,370 -295,604 9,113 45,227 104,321 27,42 72,114 100,159 100,158 142,297 142,469 0,104 -21,230 -46,273 -41,69 -81,82 -328,112 -301,35 -621,92 -1311,230 -231,47 -443,85 -471,85 -37,0 -55,-5 -68,-20 z" id="path92"/> </g> <g id="layer1"> <path style="fill:#fffcff;fill-opacity:1;stroke:#ffba00;stroke-width:9;stroke-miterlimit:4;stroke-dasharray:none;stroke-opacity:1;filter:url(#filter8800)" d="m 1204.9849,1981.3142 c -22.0224,20.4133 -40.8029,41.0904 -65.0723,71.6787 -15.7286,19.7905 -20.1268,25.8884 -21.3167,30.0483 -2.0708,7.1387 4.128,18.143 17.8958,32.0335 16.6509,16.8211 32.1348,25.3176 60.5717,33.3075 20.323,5.6979 29.6138,9.2208 39.1554,14.8926 19.4831,11.6597 35.9766,32.1571 39.6859,49.3438 2.7201,12.7785 -0.4734,28.4811 -7.8636,39.0889 -3.6247,5.3096 -15.3271,14.857 -22.0446,18.0703 -22.5986,10.9308 -50.8356,9.2002 -73.2058,-4.4681 -12.7106,-7.7033 -23.7585,-21.0177 -31.8718,-38.1371 -13.7442,-28.9998 -24.9511,-45.5906 -42.0593,-62.0232 -16.255,-15.5828 -24.0674,-19.8368 -30.1678,-16.3604 -1.707,0.9253 -6.8519,6.6078 -12.6981,13.9359 -13.0341,16.3206 -53.0197,63.9335 -65.35975,77.8275 -5.3202,6.0939 -15.968,17.5007 -23.4869,25.3312 -15.3541,16.0608 -16.3375,17.6834 -13.4249,23.7379 1.6866,3.6845 21.1549,25.9848 36.7774,42.3674 31.52675,32.7882 52.54225,53.5117 88.15655,86.6325 22.9546,21.307 22.9546,21.307 24.0315,25.5094 0.5974,2.2479 0.4631,5.6423 -0.1089,7.4403 -1.8226,4.9597 -10.0733,13.9367 -18.5289,20.2011 -18.8698,13.9301 -36.3776,21.5861 -66.9336,29.1734 -30.84945,7.7053 -40.53115,11.5996 -58.12415,23.7891 -15.4058,10.594 -29.3963,27.3333 -35.2105,42.1132 -3.0272,7.5575 -4.4178,20.2853 -3.0025,26.4308 5.9318,24.7457 34.6311,34.7435 73.1994,25.4671 29.67595,-7.2332 60.57845,-26.9238 75.34735,-47.9984 1.7685,-2.5519 6.4642,-9.6899 10.3748,-15.8985 11.972,-18.961 15.9622,-23.5315 35.0041,-39.5759 14.8616,-12.6247 17.6471,-14.5973 24.2884,-17.7459 14.597,-6.7578 20.1319,-5.0303 36.7754,11.0098 38.3525,36.9618 68.0091,68.3208 112.7653,118.9996 13.0475,14.896 10.2357,15.4476 48.7064,-10.9343 48.9915,-33.6134 88.7431,-62.6579 118.645,-86.6156 21.2595,-17.141 22.4486,-18.676 20.9464,-27.2406 -1.9169,-10.443 -14.9292,-28.3868 -28.4086,-38.8485 -9.4039,-7.3632 -19.0143,-12.1892 -35.0972,-17.6838 -27.4765,-9.3307 -36.9304,-15.2081 -48.4274,-29.978 -11.5732,-14.7051 -15.6798,-27.8803 -14.1164,-45.3473 2.6074,-30.2939 28.6503,-54.7785 62.0091,-58.4486 26.9888,-2.9824 55.8175,7.1678 71.1728,25.0894 8.1574,9.6029 11.1954,16.7318 17.1731,40.9137 7.1915,29.3178 12.0988,40.5008 25.0922,57.8046 8.3361,10.8944 14.2588,15.704 20.5141,16.426 5.6914,0.676 8.5187,-0.9384 30.5895,-17.5877 40.3769,-30.6254 83.4351,-59.3298 128.0661,-85.5651 24.817,-14.6522 26.3183,-15.6651 26.4871,-19.4824 0.2032,-4.2401 -5.349,-11.8574 -23.957,-32.5268 -49.1741,-54.7984 -80.4394,-82.9539 -136.3383,-123.1174 -21.2459,-15.2795 -25.0845,-20.4162 -21.1124,-28.2515 4.9899,-9.8808 27.6876,-21.1583 48.7981,-24.2644 8.9761,-1.3269 20.3025,-1.8949 45.9456,-2.291 23.7231,-0.3394 38.4832,-4.7428 48.2885,-14.5155 8.3458,-8.4017 10.4707,-17.9481 6.9926,-31.0012 -2.8503,-10.3061 -9.1524,-20.0418 -18.8415,-29.1308 -13.3302,-12.2942 -25.2828,-19.7229 -44.847,-27.7711 -37.1361,-15.2957 -76.3839,-14.2333 -96.1232,2.5348 -7.4689,6.3447 -10.3126,11.6469 -13.9248,26.3932 -1.6554,6.3921 -3.8024,13.5956 -4.7784,15.9993 -7.6287,17.8956 -33.9937,36.7494 -52.8825,37.8371 -8.9719,0.4049 -16.3008,-2.8165 -37.9966,-16.9266 -40.969,-26.6041 -72.5252,-50.3138 -99.9436,-75.1766 -17.9654,-16.3605 -25.0911,-23.822 -44.666,-46.5566 -20.4814,-23.8016 -22.2105,-25.2193 -27.7201,-22.9009 -7.1936,2.9618 -32.9153,23.4997 -53.7945,42.9419 z" id="path66"/> </g> </svg>